<svg width="19" height="19" viewBox="0 0 19 19" fill="none" xmlns="http://www.w3.org/2000/svg">
<mask id="mask0_0_1685" style="mask-type:luminance" maskUnits="userSpaceOnUse" x="11" y="1" width="8" height="8">
<path fill-rule="evenodd" clip-rule="evenodd" d="M11.3636 1.58362H18.1236V8.33876H11.3636V1.58362Z" fill="white"/>
</mask>
<g mask="url(#mask0_0_1685)">
<path fill-rule="evenodd" clip-rule="evenodd" d="M17.5296 8.33876C17.2312 8.33876 16.9747 8.11472 16.9406 7.81151C16.6406 5.13885 14.5648 3.06468 11.8914 2.7678C11.566 2.73139 11.3309 2.43847 11.3673 2.1123C11.4029 1.78693 11.6935 1.54705 12.0228 1.58822C15.2512 1.94685 17.7584 4.45089 18.1202 7.67851C18.1566 8.00468 17.9223 8.29839 17.5969 8.3348C17.5748 8.33718 17.5518 8.33876 17.5296 8.33876" fill="white"/>
</g>
<path fill-rule="evenodd" clip-rule="evenodd" d="M14.7271 8.34729C14.4484 8.34729 14.2006 8.15096 14.1452 7.86754C13.9172 6.69587 13.0139 5.79258 11.8438 5.56537C11.5216 5.50283 11.3118 5.19171 11.3744 4.8695C11.4369 4.54729 11.7536 4.33671 12.0702 4.40004C13.7177 4.71987 14.9899 5.99129 15.3105 7.63954C15.3731 7.96254 15.1633 8.27367 14.8419 8.33621C14.8031 8.34333 14.7651 8.34729 14.7271 8.34729" fill="white"/>
<mask id="mask1_0_1685" style="mask-type:luminance" maskUnits="userSpaceOnUse" x="1" y="1" width="17" height="17">
<path fill-rule="evenodd" clip-rule="evenodd" d="M1.58368 1.58325H17.813V17.8128H1.58368V1.58325Z" fill="white"/>
</mask>
<g mask="url(#mask1_0_1685)">
<path fill-rule="evenodd" clip-rule="evenodd" d="M3.45129 4.00697C3.45287 4.00697 3.41329 4.04814 3.36341 4.09722C3.17183 4.28326 2.7752 4.67039 2.77125 5.48026C2.76491 6.61314 3.50987 8.7166 7.09691 12.3028C10.6665 15.8717 12.7668 16.6253 13.9029 16.6253H13.9195C14.7294 16.6206 15.1157 16.224 15.3017 16.0332C15.358 15.9754 15.4039 15.9318 15.4363 15.9057C16.2256 15.1117 16.6294 14.5219 16.6254 14.1427C16.6207 13.7563 16.1401 13.3003 15.4759 12.6678C15.2645 12.4675 15.035 12.2482 14.7927 12.006C14.1641 11.3798 13.8546 11.4866 13.1698 11.7273C12.2237 12.059 10.9278 12.5134 8.90825 10.4923C6.88791 8.47276 7.34075 7.1768 7.67087 6.22997C7.90995 5.54597 8.0192 5.23485 7.39141 4.60626C7.146 4.36085 6.92512 4.1281 6.72166 3.91435C6.09308 3.2541 5.63945 2.77672 5.2555 2.77118H5.24916C4.86995 2.77118 4.28095 3.17651 3.44733 4.01014C3.4497 4.00776 3.4505 4.00697 3.45129 4.00697V4.00697ZM13.9029 17.8128C11.93 17.8128 9.35791 16.2422 6.25775 13.1428C3.14491 10.0308 1.57187 7.45072 1.58375 5.47393C1.59087 4.16768 2.27566 3.49872 2.53295 3.24776C2.54641 3.23114 2.59233 3.18601 2.60816 3.17018C3.7442 2.03414 4.52479 1.56705 5.27054 1.58368C6.15483 1.59555 6.785 2.25818 7.5822 3.09655C7.77933 3.30318 7.99229 3.5288 8.23058 3.7663C9.38562 4.92214 9.05708 5.86501 8.79187 6.62185C8.50371 7.44756 8.25433 8.16006 9.74741 9.65314C11.2405 11.1462 11.9522 10.8968 12.7771 10.6063C13.5347 10.3419 14.4752 10.011 15.6327 11.1668C15.8678 11.4019 16.0895 11.6125 16.2953 11.8081C17.1368 12.6092 17.8018 13.2418 17.8129 14.1284C17.8216 14.8837 17.3625 15.6548 16.2288 16.7884L15.7269 16.448L16.152 16.8621C15.901 17.1193 15.2337 17.8049 13.9266 17.8128H13.9029Z" fill="white"/>
</g>
</svg>
